<?xml version="1.0" encoding="UTF-8" standalone="no"?>
<svg width="51px" height="54px" viewBox="0 0 51 54" version="1.1" xmlns="http://www.w3.org/2000/svg" xmlns:xlink="http://www.w3.org/1999/xlink">
    <!-- Generator: Sketch 40.1 (33804) - http://www.bohemiancoding.com/sketch -->
    <title>Page 1</title>
    <desc>Created with Sketch.</desc>
    <defs>
        <polygon id="path-1" points="2.48944344e-21 0.0574159786 2.48944344e-21 11.1068939 11.0557978 11.1068939 11.0557978 0.0574159786 0 0.0574159786"></polygon>
        <polygon id="path-3" points="11.0557519 11.1068939 11.0557519 0.0574159786 -4.59221255e-05 0.0574159786 -4.59221255e-05 11.1068939 11.0557519 11.1068939"></polygon>
        <polygon id="path-5" points="2.48944344e-21 0.0574159786 2.48944344e-21 11.1068939 11.0557978 11.1068939 11.0557978 0.0574159786 0 0.0574159786"></polygon>
        <polygon id="path-7" points="11.0557519 11.1068939 11.0557519 0.0574159786 -4.59221255e-05 0.0574159786 -4.59221255e-05 11.1068939"></polygon>
        <polygon id="path-9" points="5.52789889 11.106848 0 11.106848 0 0.0573700826 11.0557978 0.0573700826 11.0557978 11.106848"></polygon>
        <polygon id="path-11" points="5.52785297 11.106848 11.0557519 11.106848 11.0557519 0.0573700826 -4.59221255e-05 0.0573700826 -4.59221255e-05 11.106848"></polygon>
        <polygon id="path-13" points="0 53.1820665 50.1814033 53.1820665 50.1814033 0.0917921321 0 0.0917921321"></polygon>
    </defs>
    <g id="Page-1" stroke="none" stroke-width="1" fill="none" fill-rule="evenodd">
        <g id="Custom-Preset" transform="translate(-67.000000, -42.000000)">
            <g id="Page-1" transform="translate(67.000000, 42.000000)">
                <g id="Group-3" transform="translate(0.000000, 0.034422)">
                    <mask id="mask-2" fill="white">
                        <use xlink:href="#path-1"></use>
                    </mask>
                    <g id="Clip-2"></g>
                    <path d="M5.52787593,2.62759568 C3.89782414,2.62759568 2.57159314,3.95298227 2.57159314,5.58220083 C2.57159314,7.21132759 3.89782414,8.53671418 5.52787593,8.53671418 C7.15792772,8.53671418 8.48415872,7.21132759 8.48415872,5.58220083 C8.48415872,3.95298227 7.15792772,2.62759568 5.52787593,2.62759568 M5.52787593,11.1068939 C2.47974889,11.1068939 -4.59221255e-05,8.62850631 -4.59221255e-05,5.58220083 C-4.59221255e-05,2.53580355 2.47974889,0.0574159786 5.52787593,0.0574159786 C8.57600297,0.0574159786 11.0557978,2.53580355 11.0557978,5.58220083 C11.0557978,8.62850631 8.57600297,11.1068939 5.52787593,11.1068939" id="Fill-1" fill="#FFFFFF" mask="url(#mask-2)"></path>
                </g>
                <path d="M25.0907017,2.66201773 C23.4606499,2.66201773 22.1344189,3.98740432 22.1344189,5.61662288 C22.1344189,7.24574964 23.4606499,8.57113623 25.0907017,8.57113623 C26.7207534,8.57113623 28.0469844,7.24574964 28.0469844,5.61662288 C28.0469844,3.98740432 26.7207534,2.66201773 25.0907017,2.66201773 M25.0907017,11.1413159 C22.0425746,11.1413159 19.5627798,8.66292836 19.5627798,5.61662288 C19.5627798,2.57022559 22.0425746,0.0918380282 25.0907017,0.0918380282 C28.1388287,0.0918380282 30.6186235,2.57022559 30.6186235,5.61662288 C30.6186235,8.66292836 28.1388287,11.1413159 25.0907017,11.1413159" id="Fill-4" fill="#FFFFFF"></path>
                <g id="Group-8" transform="translate(39.125651, 0.034422)">
                    <mask id="mask-4" fill="white">
                        <use xlink:href="#path-3"></use>
                    </mask>
                    <g id="Clip-7"></g>
                    <path d="M5.52787593,2.62759568 C3.89782414,2.62759568 2.57159314,3.95298227 2.57159314,5.58220083 C2.57159314,7.21132759 3.89782414,8.53671418 5.52787593,8.53671418 C7.15792772,8.53671418 8.48415872,7.21132759 8.48415872,5.58220083 C8.48415872,3.95298227 7.15792772,2.62759568 5.52787593,2.62759568 M5.52787593,11.1068939 C2.47974889,11.1068939 -4.59221255e-05,8.62850631 -4.59221255e-05,5.58220083 C-4.59221255e-05,2.53580355 2.47974889,0.0574159786 5.52787593,0.0574159786 C8.57600297,0.0574159786 11.0557978,2.53580355 11.0557978,5.58220083 C11.0557978,8.62850631 8.57600297,11.1068939 5.52787593,11.1068939" id="Fill-6" fill="#FFFFFF" mask="url(#mask-4)"></path>
                </g>
                <g id="Group-11" transform="translate(0.000000, 21.054820)">
                    <mask id="mask-6" fill="white">
                        <use xlink:href="#path-5"></use>
                    </mask>
                    <g id="Clip-10"></g>
                    <path d="M5.52787593,2.62759568 C3.89782414,2.62759568 2.57159314,3.95298227 2.57159314,5.58220083 C2.57159314,7.21123579 3.89782414,8.53671418 5.52787593,8.53671418 C7.15792772,8.53671418 8.48415872,7.21123579 8.48415872,5.58220083 C8.48415872,3.95298227 7.15792772,2.62759568 5.52787593,2.62759568 M5.52787593,11.1068939 C2.47974889,11.1068939 -4.59221255e-05,8.62850631 -4.59221255e-05,5.58220083 C-4.59221255e-05,2.53580355 2.47974889,0.0574159786 5.52787593,0.0574159786 C8.57600297,0.0574159786 11.0557978,2.53580355 11.0557978,5.58220083 C11.0557978,8.62850631 8.57600297,11.1068939 5.52787593,11.1068939" id="Fill-9" fill="#FFFFFF" mask="url(#mask-6)"></path>
                </g>
                <path d="M25.0907017,23.682416 C23.4606499,23.682416 22.1344189,25.0078026 22.1344189,26.6370211 C22.1344189,28.2660561 23.4606499,29.5915345 25.0907017,29.5915345 C26.7207534,29.5915345 28.0469844,28.2660561 28.0469844,26.6370211 C28.0469844,25.0078026 26.7207534,23.682416 25.0907017,23.682416 M25.0907017,32.1617142 C22.0425746,32.1617142 19.5627798,29.6833266 19.5627798,26.6370211 C19.5627798,23.5906238 22.0425746,21.1122363 25.0907017,21.1122363 C28.1388287,21.1122363 30.6186235,23.5906238 30.6186235,26.6370211 C30.6186235,29.6833266 28.1388287,32.1617142 25.0907017,32.1617142" id="Fill-12" fill="#FFFFFF"></path>
                <g id="Group-16" transform="translate(39.125651, 21.054820)">
                    <mask id="mask-8" fill="white">
                        <use xlink:href="#path-7"></use>
                    </mask>
                    <g id="Clip-15"></g>
                    <path d="M5.52787593,2.62759568 C3.89782414,2.62759568 2.57159314,3.95298227 2.57159314,5.58220083 C2.57159314,7.21123579 3.89782414,8.53671418 5.52787593,8.53671418 C7.15792772,8.53671418 8.48415872,7.21123579 8.48415872,5.58220083 C8.48415872,3.95298227 7.15792772,2.62759568 5.52787593,2.62759568 M5.52787593,11.1068939 C2.47974889,11.1068939 -4.59221255e-05,8.62850631 -4.59221255e-05,5.58220083 C-4.59221255e-05,2.53580355 2.47974889,0.0574159786 5.52787593,0.0574159786 C8.57600297,0.0574159786 11.0557978,2.53580355 11.0557978,5.58220083 C11.0557978,8.62850631 8.57600297,11.1068939 5.52787593,11.1068939" id="Fill-14" fill="#FFFFFF" mask="url(#mask-8)"></path>
                </g>
                <g id="Group-19" transform="translate(0.000000, 42.075219)">
                    <mask id="mask-10" fill="white">
                        <use xlink:href="#path-9"></use>
                    </mask>
                    <g id="Clip-18"></g>
                    <path d="M5.52787593,2.62754978 C3.89782414,2.62754978 2.57159314,3.95293638 2.57159314,5.58215493 C2.57159314,7.21128169 3.89782414,8.53666829 5.52787593,8.53666829 C7.15792772,8.53666829 8.48415872,7.21128169 8.48415872,5.58215493 C8.48415872,3.95293638 7.15792772,2.62754978 5.52787593,2.62754978 M5.52787593,11.106848 C2.47974889,11.106848 -4.59221255e-05,8.62846042 -4.59221255e-05,5.58215493 C-4.59221255e-05,2.53575765 2.47974889,0.0573700826 5.52787593,0.0573700826 C8.57600297,0.0573700826 11.0557978,2.53575765 11.0557978,5.58215493 C11.0557978,8.62846042 8.57600297,11.106848 5.52787593,11.106848" id="Fill-17" fill="#FFFFFF" mask="url(#mask-10)"></path>
                </g>
                <g id="Group-22" transform="translate(39.125651, 42.075219)">
                    <mask id="mask-12" fill="white">
                        <use xlink:href="#path-11"></use>
                    </mask>
                    <g id="Clip-21"></g>
                    <path d="M5.52787593,2.62754978 C3.89782414,2.62754978 2.57159314,3.95293638 2.57159314,5.58215493 C2.57159314,7.21128169 3.89782414,8.53666829 5.52787593,8.53666829 C7.15792772,8.53666829 8.48415872,7.21128169 8.48415872,5.58215493 C8.48415872,3.95293638 7.15792772,2.62754978 5.52787593,2.62754978 M5.52787593,11.106848 C2.47974889,11.106848 -4.59221255e-05,8.62846042 -4.59221255e-05,5.58215493 C-4.59221255e-05,2.53575765 2.47974889,0.0573700826 5.52787593,0.0573700826 C8.57600297,0.0573700826 11.0557978,2.53575765 11.0557978,5.58215493 C11.0557978,8.62846042 8.57600297,11.106848 5.52787593,11.106848" id="Fill-20" fill="#FFFFFF" mask="url(#mask-12)"></path>
                </g>
                <mask id="mask-14" fill="white">
                    <use xlink:href="#path-13"></use>
                </mask>
                <g id="Clip-24"></g>
                <polygon id="Fill-23" fill="#FFFFFF" mask="url(#mask-14)" points="9.72667369 6.91974988 20.4724512 6.91974988 20.4724512 4.34957018 9.72667369 4.34957018"></polygon>
                <polygon id="Fill-25" fill="#FFFFFF" mask="url(#mask-14)" points="29.2894994 6.91974988 40.0352769 6.91974988 40.0352769 4.34957018 29.2894994 4.34957018"></polygon>
                <polygon id="Fill-26" fill="#FFFFFF" mask="url(#mask-14)" points="9.72667369 28.0319403 20.4724512 28.0319403 20.4724512 25.4617606 9.72667369 25.4617606"></polygon>
                <polygon id="Fill-27" fill="#FFFFFF" mask="url(#mask-14)" points="4.21601855 22.8915809 6.78765762 22.8915809 6.78765762 10.7750194 4.21601855 10.7750194"></polygon>
                <polygon id="Fill-28" fill="#FFFFFF" mask="url(#mask-14)" points="43.34167 22.8915809 45.9133091 22.8915809 45.9133091 10.7750194 43.34167 10.7750194"></polygon>
                <polygon id="Fill-29" fill="#FFFFFF" mask="url(#mask-14)" points="4.21601855 43.2694342 6.78765762 43.2694342 6.78765762 31.1528728 4.21601855 31.1528728"></polygon>
                <polygon id="Fill-30" fill="#FFFFFF" mask="url(#mask-14)" points="29.2894994 28.0319403 40.0352769 28.0319403 40.0352769 25.4617606 29.2894994 25.4617606"></polygon>
                <polygon id="Fill-31" fill="#FFFFFF" mask="url(#mask-14)" points="40.4423674 46.6629434 7.77603035 30.9742912 8.88991744 28.6577331 41.5562545 44.3463854"></polygon>
            </g>
        </g>
    </g>
</svg>