<?xml version="1.0" encoding="UTF-8" standalone="no"?>
<svg width="20px" height="20px" viewBox="0 0 20 20" version="1.1" xmlns="http://www.w3.org/2000/svg" xmlns:xlink="http://www.w3.org/1999/xlink">
    <!-- Generator: Sketch 40.3 (33839) - http://www.bohemiancoding.com/sketch -->
    <title>emoji_happy_circle [#550]</title>
    <desc>Created with Sketch.</desc>
    <defs></defs>
    <g id="Icons" stroke="none" stroke-width="1" fill="none" fill-rule="evenodd">
        <path d="M16,8 C16,9.105 15.105,10 14,10 C12.895,10 12,9.105 12,8 C12,6.895 12.895,6 14,6 C15.105,6 16,6.895 16,8 M6,10 C4.895,10 4,9.105 4,8 C4,6.895 4.895,6 6,6 C7.105,6 8,6.895 8,8 C8,9.105 7.105,10 6,10 M14.904,12.453 C13.942,17.931 6.058,17.827 5.096,12.349 C4.991,11.751 5.482,11.415 6.09,11.415 L13.91,11.415 C14.518,11.415 15.009,11.855 14.904,12.453 M10,18 C5.589,18 2,14.411 2,10 C2,5.589 5.589,2 10,2 C14.411,2 18,5.589 18,10 C18,14.411 14.411,18 10,18 M10,0 C4.477,0 0,4.477 0,10 C0,15.523 4.477,20 10,20 C15.523,20 20,15.523 20,10 C20,4.477 15.523,0 10,0" id="emoji_happy_circle-[#550]" fill="#F30D0D"></path>
    </g>
</svg>