<?xml version="1.0" encoding="utf-8"?>
<!-- Generator: Adobe Illustrator 16.0.0, SVG Export Plug-In . SVG Version: 6.00 Build 0)  -->
<!DOCTYPE svg PUBLIC "-//W3C//DTD SVG 1.1//EN" "http://www.w3.org/Graphics/SVG/1.1/DTD/svg11.dtd">
<svg version="1.1" id="Layer_1" xmlns="http://www.w3.org/2000/svg" xmlns:xlink="http://www.w3.org/1999/xlink" x="0px" y="0px"
	 width="141.732px" height="141.732px" viewBox="-26.866 -14.366 141.732 141.732"
	 enable-background="new -26.866 -14.366 141.732 141.732" xml:space="preserve">
<title>Page 1</title>
<desc>Created with Sketch.</desc>
<g id="Page-1_1_">
	<g id="Desktop-Landscape" transform="translate(-566.000000, -449.000000)">
		<g id="Page-1" transform="translate(566.000000, 449.000000)">
			<path id="Fill-1" fill="#DC0833" d="M43.548,8.758c19.209,0,34.838,15.717,34.838,35.038c0,6.594-1.854,12.751-5.018,18.028
				l6.475,6.124c4.575-6.931,7.254-15.23,7.254-24.152C87.098,19.646,67.561,0,43.548,0c-9.821,0-18.862,3.324-26.154,8.858
				l6.43,6.084C29.438,11.05,36.227,8.758,43.548,8.758"/>
			<path id="Fill-3" fill="#DC0833" d="M43.548,78.831c-19.211,0-34.838-15.712-34.838-35.035c0-7.061,2.13-13.608,5.721-19.109
				l49.86,47.182C58.492,76.219,51.327,78.831,43.548,78.831L43.548,78.831z M10.245,8.694c-1.754-1.658-4.507-1.581-6.16,0.187
				c-1.647,1.763-1.562,4.535,0.188,6.191l3.747,3.551C3,25.751,0,34.414,0,43.797C0,66.47,17.219,85.164,39.195,87.369v16.488
				H25.095c-2.404,0-4.354,1.961-4.354,4.38c0,2.421,1.951,4.38,4.354,4.38h36.91c2.404,0,4.354-1.959,4.354-4.38
				c0-2.419-1.95-4.38-4.354-4.38H47.902V87.369c8.587-0.858,16.438-4.256,22.83-9.413l3.632,3.438
				c0.842,0.799,1.915,1.193,2.987,1.193c1.154,0,2.312-0.463,3.169-1.38c1.647-1.76,1.562-4.531-0.185-6.188L10.245,8.694z"/>
		</g>
	</g>
</g>
</svg>
