<?xml version="1.0" encoding="UTF-8" standalone="no"?>
<svg width="20px" height="20px" viewBox="0 0 20 20" version="1.1" xmlns="http://www.w3.org/2000/svg" xmlns:xlink="http://www.w3.org/1999/xlink">
    <!-- Generator: Sketch 40.3 (33839) - http://www.bohemiancoding.com/sketch -->
    <title>globe_network [#1294]</title>
    <desc>Created with Sketch.</desc>
    <defs></defs>
    <g id="Icons" stroke="none" stroke-width="1" fill="none" fill-rule="evenodd">
        <path d="M12.311,17.6647706 C13.577,15.6120647 14.313,13.3291675 14.507,11.0032346 L17.93,11.0032346 C17.533,14.1678645 15.289,16.7630212 12.311,17.6647706 M10.005,17.5056384 C8.565,15.557019 7.719,13.3081501 7.495,11.0032346 L12.506,11.0032346 C12.285,13.3071492 11.442,15.5560181 10.005,17.5056384 M2.069,11.0032346 L5.493,11.0032346 C5.689,13.3301684 6.429,15.6150672 7.699,17.6677731 C4.716,16.7690262 2.467,14.1718679 2.069,11.0032346 M7.288,2.47915074 C6.176,4.51284082 5.574,6.74569641 5.467,9.00157113 L2.069,9.00157113 C2.448,5.98106097 4.512,3.48498663 7.288,2.47915074 M9.967,1.99674985 C9.976,1.98473987 9.985,1.97272989 9.994,1.96071991 C10.003,1.97272989 10.011,1.98473987 10.02,1.99674985 C11.555,4.08748733 12.393,6.52551343 12.532,9.00157113 L7.467,9.00157113 C7.603,6.52651426 8.437,4.089489 9.967,1.99674985 M17.93,9.00157113 L14.532,9.00157113 C14.422,6.74369475 13.816,4.50983832 12.699,2.47414658 C15.482,3.47798081 17.551,5.97605681 17.93,9.00157113 M10.855,0.0371213184 C4.942,-0.465296211 0,4.19857966 0,10.0024029 C0,15.4389208 4.335,19.8425804 9.71,19.9957077 C15.387,20.1598441 20,15.5950506 20,10.0024029 C20,4.8401128 16.068,0.482491439 10.855,0.0371213184" id="globe_network-[#1294]" fill="#F30D0D"></path>
    </g>
</svg>