<?xml version="1.0" encoding="UTF-8" standalone="no"?>
<svg width="20px" height="20px" viewBox="0 0 20 20" version="1.1" xmlns="http://www.w3.org/2000/svg" xmlns:xlink="http://www.w3.org/1999/xlink">
    <!-- Generator: Sketch 40.3 (33839) - http://www.bohemiancoding.com/sketch -->
    <title>book [#1209]</title>
    <desc>Created with Sketch.</desc>
    <defs></defs>
    <g id="Icons" stroke="none" stroke-width="1" fill="none" fill-rule="evenodd">
        <path d="M18,15 C18,15.552 17.552,16 17,16 L11,16 L11,2 L17,2 C17.552,2 18,2.448 18,3 L18,15 Z M9,16 L3,16 C2.448,16 2,15.552 2,15 L2,3 C2,2.448 2.448,2 3,2 L9,2 L9,16 Z M18,0 L2,0 C0.895,0 0,0.895 0,2 L0,16 C0,17.104 0.895,18 2,18 L9,18 L9,19 C9,19.552 9.448,20 10,20 C10.552,20 11,19.552 11,19 L11,18 L18,18 C19.105,18 20,17.104 20,16 L20,2 C20,0.895 19.105,0 18,0 L18,0 Z" id="book-[#1209]" fill="#F30D0D"></path>
    </g>
</svg>