<?xml version="1.0" encoding="UTF-8" standalone="no"?>
<svg width="20px" height="20px" viewBox="0 0 20 20" version="1.1" xmlns="http://www.w3.org/2000/svg" xmlns:xlink="http://www.w3.org/1999/xlink">
    <!-- Generator: Sketch 40.3 (33839) - http://www.bohemiancoding.com/sketch -->
    <title>profile_round [#1342]</title>
    <desc>Created with Sketch.</desc>
    <defs></defs>
    <g id="Icons" stroke="none" stroke-width="1" fill="none" fill-rule="evenodd">
        <path d="M16.5625479,17.999977 L3.43817133,17.999977 C2.73178037,17.999977 2.21015352,17.302977 2.47658133,16.661977 C3.7127655,13.697977 6.61693064,11.999977 9.99984919,11.999977 C13.3837885,11.999977 16.2879537,13.697977 17.5241379,16.661977 C17.7905657,17.302977 17.2689388,17.999977 16.5625479,17.999977 M5.91666446,5.99997695 C5.91666446,3.79397695 7.74899361,1.99997695 9.99984919,1.99997695 C12.2517256,1.99997695 14.0830339,3.79397695 14.0830339,5.99997695 C14.0830339,8.20597695 12.2517256,9.99997695 9.99984919,9.99997695 C7.74899361,9.99997695 5.91666446,8.20597695 5.91666446,5.99997695 M19.9556744,17.635977 C19.2135555,14.276977 16.892265,11.797977 13.837022,10.672977 C15.4560048,9.39597695 16.4002413,7.33097695 16.0531706,5.06997695 C15.6509769,2.44697695 13.4235996,0.347976955 10.7348224,0.0419769546 C7.02320753,-0.381023045 3.8750721,2.44897695 3.8750721,5.99997695 C3.8750721,7.88997695 4.76928955,9.57397695 6.16369714,10.672977 C3.10743337,11.797977 0.787163646,14.276977 0.0440240246,17.635977 C-0.225466168,18.856977 0.778997276,19.999977 2.05397171,19.999977 L17.9457267,19.999977 C19.2217219,19.999977 20.2261854,18.856977 19.9556744,17.635977" id="profile_round-[#1342]" fill="#F30D0D"></path>
    </g>
</svg>