<?xml version="1.0" encoding="utf-8"?>
<!-- Generator: Adobe Illustrator 16.0.0, SVG Export Plug-In . SVG Version: 6.00 Build 0)  -->
<!DOCTYPE svg PUBLIC "-//W3C//DTD SVG 1.1//EN" "http://www.w3.org/Graphics/SVG/1.1/DTD/svg11.dtd">
<svg version="1.1" id="Layer_1" xmlns="http://www.w3.org/2000/svg" xmlns:xlink="http://www.w3.org/1999/xlink" x="0px" y="0px"
	 width="141.732px" height="141.732px" viewBox="-18.866 -28.866 141.732 141.732"
	 enable-background="new -18.866 -28.866 141.732 141.732" xml:space="preserve">
<title>Page 1</title>
<desc>Created with Sketch.</desc>
<g id="Page-1_1_">
	<g id="Desktop-Landscape" transform="translate(-873.000000, -466.000000)">
		<g id="Page-1" transform="translate(873.000000, 466.000000)">
			<path id="Fill-1" fill="#DC0833" d="M34.012,0C22.997,0,14.066,7.708,14.066,20.671c0,6.691,2.383,14.713,6.199,20.917
				l-8.519,3.096C5.624,46.912,0.475,54.096,0.302,60.646L0.004,71.9c-0.175,6.556,5.011,11.916,11.517,11.916h44.977
				c6.508,0,11.691-5.361,11.52-11.916L67.72,60.646c-0.172-6.551-5.323-13.734-11.444-15.963l-8.517-3.096
				c3.814-6.204,6.197-14.227,6.197-20.917C53.956,7.708,45.027,0,34.012,0 M34.012,9.343c2.503,0,10.667,0.816,10.667,11.33
				c0,4.969-1.887,11.248-4.808,15.998c-1.472,2.395-1.793,5.33-0.875,7.99c0.919,2.66,2.981,4.76,5.612,5.717l8.51,3.093
				c2.519,0.917,5.256,4.733,5.326,7.427l0.299,11.252c0.021,0.806-0.33,1.342-0.629,1.65c-0.297,0.309-0.819,0.674-1.619,0.674
				H11.521c-0.799,0-1.322-0.365-1.619-0.674c-0.297-0.31-0.647-0.844-0.627-1.648l0.298-11.256c0.07-2.691,2.808-6.508,5.321-7.422
				l8.519-3.096c2.631-0.957,4.693-3.058,5.613-5.717c0.919-2.662,0.597-5.597-0.875-7.992c-2.92-4.748-4.808-11.027-4.808-15.997
				C23.342,10.16,31.51,9.343,34.012,9.343"/>
			<path id="Fill-3" fill="#DC0833" d="M91.332,83.816H77.506c-2.562,0-4.639-2.092-4.639-4.672s2.076-4.672,4.639-4.672h13.826
				c0.775,0,1.494-0.303,2.025-0.852c0.531-0.548,0.811-1.279,0.791-2.058l-0.192-7.28c-0.062-2.326-2.172-5.271-4.342-6.061
				l-5.511-2.002c-1.314-0.479-2.346-1.528-2.806-2.858c-0.46-1.329-0.3-2.798,0.437-3.995c2.013-3.273,3.314-7.621,3.314-11.073
				c0-5.286-3.244-8.7-8.264-8.7c-5.019,0-8.262,3.415-8.262,8.7c0,0.655,0.047,1.354,0.141,2.073
				c0.332,2.557-1.459,4.902-3.999,5.236c-2.536,0.332-4.868-1.471-5.199-4.027c-0.145-1.119-0.218-2.224-0.218-3.282
				c0-10.455,7.376-18.042,17.539-18.042c10.162,0,17.538,7.589,17.538,18.043c0,3.494-0.786,7.325-2.188,10.914l0.626,0.228
				c5.8,2.107,10.3,8.384,10.466,14.599l0.191,7.28c0.09,3.319-1.123,6.453-3.415,8.824C97.713,82.51,94.633,83.816,91.332,83.816"
				/>
		</g>
	</g>
</g>
</svg>
