<?xml version="1.0" encoding="utf-8"?>
<!-- Generator: Adobe Illustrator 16.0.0, SVG Export Plug-In . SVG Version: 6.00 Build 0)  -->
<!DOCTYPE svg PUBLIC "-//W3C//DTD SVG 1.1//EN" "http://www.w3.org/Graphics/SVG/1.1/DTD/svg11.dtd">
<svg version="1.1" id="Layer_1" xmlns="http://www.w3.org/2000/svg" xmlns:xlink="http://www.w3.org/1999/xlink" x="0px" y="0px"
	 width="141.732px" height="141.732px" viewBox="-8.866 -35.366 141.732 141.732"
	 enable-background="new -8.866 -35.366 141.732 141.732" xml:space="preserve">
<title>Page 1</title>
<desc>Created with Sketch.</desc>
<g id="Page-1_1_">
	<g id="Desktop-Landscape" transform="translate(-172.000000, -487.000000)">
		<path id="Page-1" fill="#DC0833" d="M280.287,509.387c-3.718,0-6.748-3.016-6.748-6.725s3.03-6.725,6.748-6.725
			c3.724,0,6.748,3.016,6.748,6.725S284.011,509.387,280.287,509.387 M235.859,548.446c-3.721,0-6.747-3.019-6.747-6.726
			s3.029-6.727,6.747-6.727s6.748,3.02,6.748,6.727C242.608,545.428,239.577,548.446,235.859,548.446 M180.962,502.66
			c0-3.709,3.026-6.725,6.749-6.725s6.748,3.016,6.748,6.725s-3.025,6.726-6.748,6.726S180.962,506.37,180.962,502.66 M296,502.66
			c0-8.634-7.049-15.66-15.713-15.66c-8.658,0-15.709,7.026-15.709,15.66c0,7.073,4.761,12.995,11.228,14.933v10.728
			c0,4.928-4.018,8.934-8.964,8.934h-16.001c-1.942-6.447-7.884-11.191-14.981-11.191c-7.099,0-13.036,4.744-14.981,11.191h-19.723
			c-4.943,0-8.962-4.006-8.962-8.934v-10.728c6.47-1.938,11.229-7.86,11.229-14.933c0-8.634-7.047-15.66-15.71-15.66
			c-8.664,0-15.711,7.026-15.711,15.66c0,7.073,4.76,12.995,11.23,14.933v10.728c0,9.85,8.041,17.867,17.925,17.867h19.723
			c1.944,6.447,7.882,11.193,14.981,11.193c7.098,0,13.039-4.746,14.981-11.193h16.001c9.889,0,17.93-8.018,17.93-17.867v-10.728
			C291.241,515.655,296,509.734,296,502.66"/>
	</g>
</g>
</svg>
