<svg xmlns="http://www.w3.org/2000/svg" xmlns:xlink="http://www.w3.org/1999/xlink" version="1.1" x="0px" y="0px" viewBox="0 0 60 60" enable-background="new 0 0 60 60" xml:space="preserve"><path fill="#fff" stroke-width="2" d="M54.07,0H15.93C12.66,0,10,2.66,10,5.93V14H5.93C2.66,14,0,16.66,0,19.93v21.14C0,44.34,2.66,47,5.93,47H12v10  c0,0.41,0.25,0.78,0.64,0.93C12.76,57.98,12.88,58,13,58c0.28,0,0.55-0.11,0.74-0.33L23.44,47h20.63c3.27,0,5.93-2.66,5.93-5.93V33  h4.07c3.27,0,5.93-2.66,5.93-5.93V5.93C60,2.66,57.34,0,54.07,0z M48,41.07c0,2.17-1.76,3.93-3.93,3.93H23  c-0.28,0-0.55,0.12-0.74,0.33L14,54.41V46c0-0.55-0.45-1-1-1H5.93C3.76,45,2,43.24,2,41.07V19.93C2,17.76,3.76,16,5.93,16H11h33.07  c2.17,0,3.93,1.76,3.93,3.93V32V41.07z M58,27.07c0,2.17-1.76,3.93-3.93,3.93H50V19.93c0-3.27-2.66-5.93-5.93-5.93H12V5.93  C12,3.76,13.76,2,15.93,2h38.14C56.24,2,58,3.76,58,5.93V27.07z"/></svg>