<?xml version="1.0" encoding="UTF-8" standalone="no"?>
<svg width="20px" height="20px" viewBox="0 0 20 20" version="1.1" xmlns="http://www.w3.org/2000/svg" xmlns:xlink="http://www.w3.org/1999/xlink">
    <!-- Generator: Sketch 40.3 (33839) - http://www.bohemiancoding.com/sketch -->
    <title>circular_connectivity [#1044]</title>
    <desc>Created with Sketch.</desc>
    <defs></defs>
    <g id="Icons" stroke="none" stroke-width="1" fill="none" fill-rule="evenodd">
        <path d="M16,11 L18,11 L18,9 L16,9 L16,11 Z M15,13 L15.188,13 C14.662,13.906 13.907,14.662 13,15.188 L13,15 C13,14.447 12.552,14 12,14 L8,14 C7.448,14 7,14.447 7,15 L7,15.188 C6.093,14.662 5.338,13.906 4.812,13 L5,13 C5.552,13 6,12.552 6,12 L6,8 C6,7.447 5.552,7 5,7 L4.812,7 C5.338,6.093 6.093,5.338 7,4.812 L7,5 C7,5.552 7.448,6 8,6 L12,6 C12.552,6 13,5.552 13,5 L13,4.812 C13.907,5.338 14.662,6 15.188,7 L15,7 C14.448,7 14,7.447 14,8 L14,12 C14,12.552 14.448,13 15,13 L15,13 Z M9,18 L11,18 L11,16 L9,16 L9,18 Z M9,4 L11,4 L11,2 L9,2 L9,4 Z M4,11 L2.069,11 L2,11 L2,9 L4,9 L4,11 Z M19,7 L17.413,7 C16.601,5 15.004,3.398 13,2.587 L13,1 C13,0.447 12.552,0 12,0 L8,0 C7.448,0 7,0.447 7,1 L7,2.587 C4.996,3.398 3.399,4.996 2.587,7 L1,7 C0.448,7 0,7.447 0,8 L0,12 C0,12.552 0.448,13 1,13 L2.587,13 C3.399,15.003 4.996,16.601 7,17.413 L7,19 C7,19.552 7.448,20 8,20 L12,20 C12.552,20 13,19.552 13,19 L13,17.413 C15.004,16.601 16.601,15.003 17.413,13 L19,13 C19.552,13 20,12.552 20,12 L20,8 C20,7.447 19.552,7 19,7 L19,7 Z" id="circular_connectivity-[#1044]" fill="#F30D0D"></path>
    </g>
</svg>