<?xml version="1.0" encoding="UTF-8" standalone="no"?>
<svg width="22px" height="18px" viewBox="0 0 22 18" version="1.1" xmlns="http://www.w3.org/2000/svg" xmlns:xlink="http://www.w3.org/1999/xlink">
    <!-- Generator: Sketch 40.3 (33839) - http://www.bohemiancoding.com/sketch -->
    <title>twitter [#154]</title>
    <desc>Created with Sketch.</desc>
    <defs></defs>
    <g id="Icons" stroke="none" stroke-width="1" fill="none" fill-rule="evenodd" stroke-linecap="round" stroke-linejoin="round">
        <path d="M7.29,17 C14.837,17 18.965,10.8436531 18.965,5.50546136 C18.965,5.33021272 18.965,5.15594862 18.953,4.98266906 C19.756,4.41163417 20.449,3.70276326 21,2.89149989 C20.252,3.21836814 19.457,3.4329985 18.644,3.52751462 C19.5,3.0224441 20.141,2.2289025 20.448,1.29260218 C19.642,1.7632137 18.761,2.09500467 17.842,2.27320694 C16.288,0.646742024 13.689,0.56797859 12.036,2.09795829 C10.971,3.08447031 10.518,4.55537743 10.849,5.9583511 C7.55,5.79491698 4.476,4.2609991 2.392,1.73761558 C1.303,3.58363357 1.86,5.9445675 3.663,7.12995718 C3.01,7.11125087 2.371,6.93797131 1.8,6.62488666 L1.8,6.67608289 C1.801,8.59889523 3.178,10.2548964 5.092,10.6359145 C4.488,10.7983641 3.854,10.8219931 3.24,10.7048325 C3.777,12.3509883 5.318,13.47829 7.073,13.5107799 C5.62,14.6351279 3.825,15.2455445 1.977,15.2435754 C1.651,15.2425909 1.325,15.2238846 1,15.1854874 C2.877,16.3708771 5.06,17 7.29,16.9970464" id="twitter-[#154]" stroke="#F30D0D" stroke-width="1.8"></path>
    </g>
</svg>