<?xml version="1.0" encoding="UTF-8" standalone="no"?>
<svg width="20px" height="16px" viewBox="0 0 20 16" version="1.1" xmlns="http://www.w3.org/2000/svg" xmlns:xlink="http://www.w3.org/1999/xlink">
    <!-- Generator: Sketch 41.2 (35397) - http://www.bohemiancoding.com/sketch -->
    <title>twitter [#154]</title>
    <desc>Created with Sketch.</desc>
    <defs></defs>
    <g id="Page-1" stroke="none" stroke-width="1" fill="none" fill-rule="evenodd">
        <g id="COPIA" transform="translate(-860.000000, -5770.000000)" fill="#FFFFFF">
            <path d="M866.29,5786 C873.837,5786 877.965,5779.84365 877.965,5774.50546 C877.965,5774.33021 877.965,5774.15595 877.953,5773.98267 C878.756,5773.41163 879.449,5772.70276 880,5771.8915 C879.252,5772.21837 878.457,5772.433 877.644,5772.52751 C878.5,5772.02244 879.141,5771.2289 879.448,5770.2926 C878.642,5770.76321 877.761,5771.095 876.842,5771.27321 C875.288,5769.64674 872.689,5769.56798 871.036,5771.09796 C869.971,5772.08447 869.518,5773.55538 869.849,5774.95835 C866.55,5774.79492 863.476,5773.261 861.392,5770.73762 C860.303,5772.58363 860.86,5774.94457 862.663,5776.12996 C862.01,5776.11125 861.371,5775.93797 860.8,5775.62489 L860.8,5775.67608 C860.801,5777.5989 862.178,5779.2549 864.092,5779.63591 C863.488,5779.79836 862.854,5779.82199 862.24,5779.70483 C862.777,5781.35099 864.318,5782.47829 866.073,5782.51078 C864.62,5783.63513 862.825,5784.24554 860.977,5784.24358 C860.651,5784.24259 860.325,5784.22388 860,5784.18549 C861.877,5785.37088 864.06,5786 866.29,5785.99705" id="twitter-[#154]"></path>
        </g>
    </g>
</svg>