<?xml version="1.0" encoding="UTF-8" standalone="no"?>
<svg width="20px" height="14px" viewBox="0 0 20 14" version="1.1" xmlns="http://www.w3.org/2000/svg" xmlns:xlink="http://www.w3.org/1999/xlink">
    <!-- Generator: Sketch 41.2 (35397) - http://www.bohemiancoding.com/sketch -->
    <title>youtube [#168]</title>
    <desc>Created with Sketch.</desc>
    <defs></defs>
    <g id="Page-1" stroke="none" stroke-width="1" fill="none" fill-rule="evenodd">
        <g id="COPIA" transform="translate(-922.000000, -5772.000000)" fill="#FFFFFF">
            <path d="M929.988432,5781.58588 L929.988432,5775.97425 C931.980638,5776.91168 933.523602,5777.8172 935.348463,5778.79353 C933.843351,5779.62824 931.980638,5780.56468 929.988432,5781.58588 M941.090998,5773.18289 C940.747343,5772.73013 940.161634,5772.37809 939.538073,5772.26141 C937.705243,5771.91336 926.270974,5771.91237 924.439141,5772.26141 C923.939097,5772.35515 923.493839,5772.58153 923.111335,5772.93357 C921.49964,5774.42947 922.004664,5782.45151 922.393145,5783.75096 C922.556505,5784.31342 922.767679,5784.71931 923.033639,5784.98558 C923.376298,5785.33761 923.845463,5785.57995 924.384355,5785.68865 C925.893451,5786.0008 933.668037,5786.17532 939.506198,5785.73552 C940.044094,5785.64178 940.520231,5785.39147 940.895762,5785.02447 C942.385932,5783.53455 942.28433,5775.06174 941.090998,5773.18289" id="youtube-[#168]"></path>
        </g>
    </g>
</svg>